<?xml version="1.0" encoding="UTF-8" standalone="no"?>
<!DOCTYPE svg PUBLIC "-//W3C//DTD SVG 1.1//EN"
 "http://www.w3.org/Graphics/SVG/1.1/DTD/svg11.dtd">
<!-- Generated by graphviz version 2.49.3 (0)
 -->
<!-- Title: wcWebCam structure Pages: 1 -->
<svg width="1088pt" height="396pt"
 viewBox="0.00 0.00 1087.50 396.00" xmlns="http://www.w3.org/2000/svg" xmlns:xlink="http://www.w3.org/1999/xlink">
<g id="graph0" class="graph" transform="scale(1 1) rotate(0) translate(4 392)">
<title>wcWebCam structure</title>
<polygon fill="white" stroke="transparent" points="-4,4 -4,-392 1083.5,-392 1083.5,4 -4,4"/>
<!-- 0 -->
<g id="node1" class="node">
<title>0</title>
<g id="a_node1"><a xlink:href="https://github.com/iLya2IK/wchttpserver" xlink:title="wcHTTPServer">
<polygon fill="none" stroke="black" points="690,-388 593,-388 593,-392 581,-392 581,-352 690,-352 690,-388"/>
<polyline fill="none" stroke="black" points="581,-388 593,-388 "/>
<text text-anchor="middle" x="635.5" y="-366.3" font-family="sans" font-size="14.00">wcHTTPServer</text>
</a>
</g>
</g>
<!-- 1 -->
<g id="node2" class="node">
<title>1</title>
<g id="a_node2"><a xlink:href="https://github.com/iLya2IK/wcwebcamserver" xlink:title="wcWebCamServer">
<polygon fill="none" stroke="black" points="700,-301 571,-301 571,-297 567,-297 567,-293 571,-293 571,-273 567,-273 567,-269 571,-269 571,-265 700,-265 700,-301"/>
<polyline fill="none" stroke="black" points="571,-297 575,-297 575,-293 571,-293 "/>
<polyline fill="none" stroke="black" points="571,-273 575,-273 575,-269 571,-269 "/>
<text text-anchor="middle" x="635.5" y="-279.3" font-family="sans" font-size="14.00">wcWebCamServer</text>
</a>
</g>
</g>
<!-- 0&#45;&gt;1 -->
<g id="edge1" class="edge">
<title>0&#45;&gt;1</title>
<path fill="none" stroke="black" d="M635.5,-351.8C635.5,-340.16 635.5,-324.55 635.5,-311.24"/>
<polygon fill="black" stroke="black" points="639,-311.18 635.5,-301.18 632,-311.18 639,-311.18"/>
<text text-anchor="middle" x="694.5" y="-322.8" font-family="sans" font-size="14.00">wcHTTPServer API</text>
</g>
<!-- 7 -->
<g id="node3" class="node">
<title>7</title>
<g id="a_node3"><a xlink:href="https://github.com/curl/curl" xlink:title="cURL">
<polygon fill="#4d4d4d" stroke="black" points="399.5,-214 345.5,-214 345.5,-210 341.5,-210 341.5,-206 345.5,-206 345.5,-186 341.5,-186 341.5,-182 345.5,-182 345.5,-178 399.5,-178 399.5,-214"/>
<polyline fill="none" stroke="black" points="345.5,-210 349.5,-210 349.5,-206 345.5,-206 "/>
<polyline fill="none" stroke="black" points="345.5,-186 349.5,-186 349.5,-182 345.5,-182 "/>
<text text-anchor="middle" x="372.5" y="-192.3" font-family="sans bold" font-size="14.00" fill="white">cURL</text>
</a>
</g>
</g>
<!-- 1&#45;&gt;7 -->
<g id="edge2" class="edge">
<title>1&#45;&gt;7</title>
<path fill="none" stroke="black" d="M570.87,-276.28C516.7,-270.63 444.21,-260.83 418.5,-247 407.41,-241.04 397.57,-231.35 389.87,-222.09"/>
<polygon fill="black" stroke="black" points="392.59,-219.88 383.67,-214.16 387.07,-224.2 392.59,-219.88"/>
<text text-anchor="middle" x="451.5" y="-235.8" font-family="sans" font-size="14.00">responses</text>
</g>
<!-- 10 -->
<g id="node4" class="node">
<title>10</title>
<g id="a_node4"><a xlink:href="https://github.com/nghttp2/nghttp2" xlink:title="nghttp2">
<polygon fill="#4d4d4d" stroke="black" points="669,-214 604,-214 604,-210 600,-210 600,-206 604,-206 604,-186 600,-186 600,-182 604,-182 604,-178 669,-178 669,-214"/>
<polyline fill="none" stroke="black" points="604,-210 608,-210 608,-206 604,-206 "/>
<polyline fill="none" stroke="black" points="604,-186 608,-186 608,-182 604,-182 "/>
<text text-anchor="middle" x="636.5" y="-192.3" font-family="sans bold" font-size="14.00" fill="white">nghttp2</text>
</a>
</g>
</g>
<!-- 1&#45;&gt;10 -->
<g id="edge4" class="edge">
<title>1&#45;&gt;10</title>
<path fill="none" stroke="black" d="M606.65,-264.91C595.46,-255.94 586.58,-244.27 592.5,-232 594.36,-228.14 596.88,-224.58 599.77,-221.32"/>
<polygon fill="black" stroke="black" points="602.29,-223.75 607.06,-214.29 597.43,-218.71 602.29,-223.75"/>
<text text-anchor="middle" x="625.5" y="-235.8" font-family="sans" font-size="14.00">responses</text>
</g>
<!-- 13 -->
<g id="node5" class="node">
<title>13</title>
<g id="a_node5"><a xlink:href="https://square.github.io/okhttp/" xlink:title="okHttp">
<polygon fill="#4d4d4d" stroke="black" points="884,-214 825,-214 825,-210 821,-210 821,-206 825,-206 825,-186 821,-186 821,-182 825,-182 825,-178 884,-178 884,-214"/>
<polyline fill="none" stroke="black" points="825,-210 829,-210 829,-206 825,-206 "/>
<polyline fill="none" stroke="black" points="825,-186 829,-186 829,-182 825,-182 "/>
<text text-anchor="middle" x="854.5" y="-192.3" font-family="sans bold" font-size="14.00" fill="white">okHttp</text>
</a>
</g>
</g>
<!-- 1&#45;&gt;13 -->
<g id="edge6" class="edge">
<title>1&#45;&gt;13</title>
<path fill="none" stroke="black" d="M679.55,-264.9C719.23,-249.5 777,-227.08 815.15,-212.27"/>
<polygon fill="black" stroke="black" points="816.83,-215.38 824.88,-208.49 814.29,-208.85 816.83,-215.38"/>
<text text-anchor="middle" x="791.5" y="-235.8" font-family="sans" font-size="14.00">responses</text>
</g>
<!-- 7&#45;&gt;1 -->
<g id="edge3" class="edge">
<title>7&#45;&gt;1</title>
<path fill="none" stroke="black" d="M399.7,-205.36C422.4,-212.37 455.61,-222.7 484.5,-232 514.36,-241.61 547.46,-252.54 575.04,-261.72"/>
<polygon fill="black" stroke="black" points="573.95,-265.05 584.55,-264.89 576.17,-258.41 573.95,-265.05"/>
<text text-anchor="middle" x="558" y="-235.8" font-family="sans" font-size="14.00">requests</text>
</g>
<!-- 12 -->
<g id="node9" class="node">
<title>12</title>
<polygon fill="#e5e5e5" stroke="black" points="119,-126 4,-126 0,-122 0,-90 115,-90 119,-94 119,-126"/>
<polyline fill="none" stroke="black" points="115,-122 0,-122 "/>
<polyline fill="none" stroke="black" points="115,-122 115,-90 "/>
<polyline fill="none" stroke="black" points="115,-122 119,-126 "/>
<text text-anchor="middle" x="59.5" y="-104.3" font-family="sans" font-size="14.00">Clients via cURL</text>
</g>
<!-- 7&#45;&gt;12 -->
<g id="edge8" class="edge">
<title>7&#45;&gt;12</title>
<path fill="none" stroke="black" d="M345.28,-189.9C313.45,-183.73 259.29,-172.59 213.5,-160 180.93,-151.05 145.07,-139.29 116.16,-129.32"/>
<polygon fill="black" stroke="black" points="117.23,-125.99 106.64,-126.01 114.94,-132.6 117.23,-125.99"/>
<text text-anchor="middle" x="243" y="-148.8" font-family="sans" font-size="14.00">cURL API</text>
</g>
<!-- 2 -->
<g id="node11" class="node">
<title>2</title>
<g id="a_node11"><a xlink:href="https://github.com/iLya2IK/wcwebcamclient_lib" xlink:title="wcWebCamClient\nLibrary">
<polygon fill="none" stroke="black" points="263.5,-127 149.5,-127 149.5,-131 137.5,-131 137.5,-89 263.5,-89 263.5,-127"/>
<polyline fill="none" stroke="black" points="137.5,-127 149.5,-127 "/>
<text text-anchor="middle" x="200.5" y="-111.8" font-family="sans" font-size="14.00">wcWebCamClient</text>
<text text-anchor="middle" x="200.5" y="-96.8" font-family="sans" font-size="14.00">Library</text>
</a>
</g>
</g>
<!-- 7&#45;&gt;2 -->
<g id="edge9" class="edge">
<title>7&#45;&gt;2</title>
<path fill="none" stroke="black" d="M345.25,-181.37C318.52,-168.01 277.29,-147.4 245.66,-131.58"/>
<polygon fill="black" stroke="black" points="247.11,-128.39 236.6,-127.05 243.98,-134.65 247.11,-128.39"/>
</g>
<!-- 3 -->
<g id="node12" class="node">
<title>3</title>
<g id="a_node12"><a xlink:href="https://github.com/iLya2IK/wccurlclient" xlink:title="HTTP2 Web Camera\nAbstract Client for Lazarus">
<polygon fill="none" stroke="black" points="463.5,-127 293.5,-127 293.5,-131 281.5,-131 281.5,-89 463.5,-89 463.5,-127"/>
<polyline fill="none" stroke="black" points="281.5,-127 293.5,-127 "/>
<text text-anchor="middle" x="372.5" y="-111.8" font-family="sans" font-size="14.00">HTTP2 Web Camera</text>
<text text-anchor="middle" x="372.5" y="-96.8" font-family="sans" font-size="14.00">Abstract Client for Lazarus</text>
</a>
</g>
</g>
<!-- 7&#45;&gt;3 -->
<g id="edge10" class="edge">
<title>7&#45;&gt;3</title>
<path fill="none" stroke="black" d="M372.5,-177.6C372.5,-166.06 372.5,-150.65 372.5,-137.36"/>
<polygon fill="black" stroke="black" points="376,-137.27 372.5,-127.27 369,-137.27 376,-137.27"/>
</g>
<!-- 10&#45;&gt;1 -->
<g id="edge5" class="edge">
<title>10&#45;&gt;1</title>
<path fill="none" stroke="black" d="M650.7,-214.19C656.81,-223.65 661.87,-235.73 658.5,-247 657.59,-250.04 656.33,-253.05 654.85,-255.97"/>
<polygon fill="black" stroke="black" points="651.68,-254.45 649.6,-264.84 657.71,-258.02 651.68,-254.45"/>
<text text-anchor="middle" x="688" y="-235.8" font-family="sans" font-size="14.00">requests</text>
</g>
<!-- 11 -->
<g id="node8" class="node">
<title>11</title>
<polygon fill="#e5e5e5" stroke="black" points="613.5,-126 485.5,-126 481.5,-122 481.5,-90 609.5,-90 613.5,-94 613.5,-126"/>
<polyline fill="none" stroke="black" points="609.5,-122 481.5,-122 "/>
<polyline fill="none" stroke="black" points="609.5,-122 609.5,-90 "/>
<polyline fill="none" stroke="black" points="609.5,-122 613.5,-126 "/>
<text text-anchor="middle" x="547.5" y="-104.3" font-family="sans" font-size="14.00">Clients via nghttp2</text>
</g>
<!-- 10&#45;&gt;11 -->
<g id="edge14" class="edge">
<title>10&#45;&gt;11</title>
<path fill="none" stroke="black" d="M609.73,-177.96C602.2,-172.62 594.22,-166.43 587.5,-160 579.45,-152.3 571.64,-142.93 565.1,-134.33"/>
<polygon fill="black" stroke="black" points="567.76,-132.05 559.01,-126.08 562.13,-136.2 567.76,-132.05"/>
<text text-anchor="middle" x="624" y="-148.8" font-family="sans" font-size="14.00">nghttp2 API</text>
</g>
<!-- 5 -->
<g id="node14" class="node">
<title>5</title>
<g id="a_node14"><a xlink:href="https://github.com/iLya2IK/webcamdevice" xlink:title="HTTP2 Web Camera\nClient Device">
<polygon fill="none" stroke="black" points="773.5,-127 643.5,-127 643.5,-131 631.5,-131 631.5,-89 773.5,-89 773.5,-127"/>
<polyline fill="none" stroke="black" points="631.5,-127 643.5,-127 "/>
<text text-anchor="middle" x="702.5" y="-111.8" font-family="sans" font-size="14.00">HTTP2 Web Camera</text>
<text text-anchor="middle" x="702.5" y="-96.8" font-family="sans" font-size="14.00">Client Device</text>
</a>
</g>
</g>
<!-- 10&#45;&gt;5 -->
<g id="edge15" class="edge">
<title>10&#45;&gt;5</title>
<path fill="none" stroke="black" d="M649.86,-177.6C659.15,-165.48 671.72,-149.11 682.24,-135.4"/>
<polygon fill="black" stroke="black" points="685.17,-137.33 688.48,-127.27 679.62,-133.07 685.17,-137.33"/>
</g>
<!-- 13&#45;&gt;1 -->
<g id="edge7" class="edge">
<title>13&#45;&gt;1</title>
<path fill="none" stroke="black" d="M849.78,-214.45C845.88,-225.49 839.21,-239.1 828.5,-247 809.8,-260.79 756.18,-269.83 710.19,-275.26"/>
<polygon fill="black" stroke="black" points="709.74,-271.78 700.21,-276.39 710.54,-278.74 709.74,-271.78"/>
<text text-anchor="middle" x="869" y="-235.8" font-family="sans" font-size="14.00">requests</text>
</g>
<!-- 14 -->
<g id="node10" class="node">
<title>14</title>
<polygon fill="#e5e5e5" stroke="black" points="919,-126 796,-126 792,-122 792,-90 915,-90 919,-94 919,-126"/>
<polyline fill="none" stroke="black" points="915,-122 792,-122 "/>
<polyline fill="none" stroke="black" points="915,-122 915,-90 "/>
<polyline fill="none" stroke="black" points="915,-122 919,-126 "/>
<text text-anchor="middle" x="855.5" y="-104.3" font-family="sans" font-size="14.00">Clients via okHttp</text>
</g>
<!-- 13&#45;&gt;14 -->
<g id="edge16" class="edge">
<title>13&#45;&gt;14</title>
<path fill="none" stroke="black" d="M854.7,-177.6C854.84,-165.75 855.03,-149.82 855.18,-136.29"/>
<polygon fill="black" stroke="black" points="858.68,-136.12 855.3,-126.08 851.69,-136.04 858.68,-136.12"/>
<text text-anchor="middle" x="902.5" y="-148.8" font-family="sans" font-size="14.00">okHttp classes</text>
</g>
<!-- 6 -->
<g id="node15" class="node">
<title>6</title>
<g id="a_node15"><a xlink:href="https://github.com/iLya2IK/wcwebcameracontrol" xlink:title="HTTP2 Web Camera\nAndroid Client">
<polygon fill="none" stroke="black" points="1079.5,-127 949.5,-127 949.5,-131 937.5,-131 937.5,-89 1079.5,-89 1079.5,-127"/>
<polyline fill="none" stroke="black" points="937.5,-127 949.5,-127 "/>
<text text-anchor="middle" x="1008.5" y="-111.8" font-family="sans" font-size="14.00">HTTP2 Web Camera</text>
<text text-anchor="middle" x="1008.5" y="-96.8" font-family="sans" font-size="14.00">Android Client</text>
</a>
</g>
</g>
<!-- 13&#45;&gt;6 -->
<g id="edge17" class="edge">
<title>13&#45;&gt;6</title>
<path fill="none" stroke="black" d="M884.05,-187.97C904.49,-182.3 931.81,-173.11 953.5,-160 964.99,-153.05 976.15,-143.43 985.38,-134.41"/>
<polygon fill="black" stroke="black" points="988.11,-136.62 992.64,-127.05 983.13,-131.71 988.11,-136.62"/>
</g>
<!-- 8 -->
<g id="node6" class="node">
<title>8</title>
<polygon fill="#e5e5e5" stroke="black" points="268,-37 77,-37 73,-33 73,-1 264,-1 268,-5 268,-37"/>
<polyline fill="none" stroke="black" points="264,-33 73,-33 "/>
<polyline fill="none" stroke="black" points="264,-33 264,-1 "/>
<polyline fill="none" stroke="black" points="264,-33 268,-37 "/>
<text text-anchor="middle" x="170.5" y="-15.3" font-family="sans" font-size="14.00">Clients via wcWebCamClient</text>
</g>
<!-- 9 -->
<g id="node7" class="node">
<title>9</title>
<polygon fill="#e5e5e5" stroke="black" points="459,-37 290,-37 286,-33 286,-1 455,-1 459,-5 459,-37"/>
<polyline fill="none" stroke="black" points="455,-33 286,-33 "/>
<polyline fill="none" stroke="black" points="455,-33 455,-1 "/>
<polyline fill="none" stroke="black" points="455,-33 459,-37 "/>
<text text-anchor="middle" x="372.5" y="-15.3" font-family="sans" font-size="14.00">Clients via wcCURLClient</text>
</g>
<!-- 2&#45;&gt;8 -->
<g id="edge11" class="edge">
<title>2&#45;&gt;8</title>
<path fill="none" stroke="black" d="M194.28,-88.97C190.1,-76.84 184.51,-60.62 179.79,-46.95"/>
<polygon fill="black" stroke="black" points="182.97,-45.43 176.4,-37.12 176.35,-47.71 182.97,-45.43"/>
<text text-anchor="middle" x="255.5" y="-59.8" font-family="sans" font-size="14.00">wcWebCamClient API</text>
</g>
<!-- 3&#45;&gt;9 -->
<g id="edge12" class="edge">
<title>3&#45;&gt;9</title>
<path fill="none" stroke="black" d="M372.5,-88.97C372.5,-76.96 372.5,-60.93 372.5,-47.36"/>
<polygon fill="black" stroke="black" points="376,-47.12 372.5,-37.12 369,-47.12 376,-47.12"/>
<text text-anchor="middle" x="470" y="-59.8" font-family="sans" font-size="14.00">Lazarus classes and interfaces</text>
</g>
<!-- 4 -->
<g id="node13" class="node">
<title>4</title>
<g id="a_node13"><a xlink:href="https://github.com/iLya2IK/webcamclientviewer" xlink:title="HTTP2 Web Camera\nDesktop Viewer">
<polygon fill="none" stroke="black" points="653.5,-38 523.5,-38 523.5,-42 511.5,-42 511.5,0 653.5,0 653.5,-38"/>
<polyline fill="none" stroke="black" points="511.5,-38 523.5,-38 "/>
<text text-anchor="middle" x="582.5" y="-22.8" font-family="sans" font-size="14.00">HTTP2 Web Camera</text>
<text text-anchor="middle" x="582.5" y="-7.8" font-family="sans" font-size="14.00">Desktop Viewer</text>
</a>
</g>
</g>
<!-- 3&#45;&gt;4 -->
<g id="edge13" class="edge">
<title>3&#45;&gt;4</title>
<path fill="none" stroke="black" d="M463.54,-90.55C514.49,-81.29 567.97,-71.49 568.5,-71 574.95,-65.09 578.53,-56.51 580.5,-48.08"/>
<polygon fill="black" stroke="black" points="583.98,-48.48 582.17,-38.04 577.07,-47.33 583.98,-48.48"/>
</g>
</g>
</svg>
